<svg width="24" height="592" viewBox="0 0 24 592" fill="none" xmlns="http://www.w3.org/2000/svg">
<path d="M16.164 272.24C16.164 271.484 15.924 270.782 15.444 270.134C15.54 270.038 15.684 269.954 15.876 269.882C16.068 269.81 16.236 269.774 16.38 269.774C16.596 269.774 16.848 269.918 17.136 270.206C17.412 270.494 17.652 270.896 17.856 271.412C18.06 271.916 18.162 272.486 18.162 273.122C18.162 274.01 17.97 274.79 17.586 275.462C17.202 276.122 16.644 276.632 15.912 276.992C15.18 277.352 14.316 277.532 13.32 277.532C12.3 277.532 11.406 277.34 10.638 276.956C9.87 276.56 9.282 276.02 8.874 275.336C8.454 274.652 8.244 273.878 8.244 273.014C8.244 271.922 8.562 271.052 9.198 270.404C9.834 269.756 10.716 269.432 11.844 269.432C12.372 269.432 12.792 269.516 13.104 269.684C13.404 269.852 13.554 270.152 13.554 270.584V274.472C15.294 274.4 16.164 273.656 16.164 272.24ZM9.486 273.122C9.486 273.494 9.696 273.806 10.116 274.058C10.524 274.31 11.214 274.448 12.186 274.472V272.654C12.186 272.462 12.12 272.336 11.988 272.276C11.856 272.216 11.652 272.186 11.376 272.186C10.668 272.186 10.176 272.27 9.9 272.438C9.624 272.606 9.486 272.834 9.486 273.122ZM17.55 258.957C17.766 259.125 17.934 259.377 18.054 259.713C18.174 260.049 18.234 260.409 18.234 260.793C18.234 261.141 18.156 261.483 18 261.819C17.856 262.155 17.652 262.389 17.388 262.521C17.7 262.761 17.916 263.061 18.036 263.421C18.168 263.769 18.234 264.207 18.234 264.735C18.234 265.407 18.066 266.025 17.73 266.589C17.382 267.153 16.872 267.609 16.2 267.957C15.516 268.293 14.682 268.461 13.698 268.461C12.534 268.461 11.544 268.245 10.728 267.813C9.912 267.369 9.3 266.787 8.892 266.067C8.484 265.347 8.28 264.555 8.28 263.691C8.28 263.487 8.304 263.121 8.352 262.593L7.272 262.647H6.372C6.072 262.647 5.85 262.731 5.706 262.899C5.562 263.067 5.49 263.385 5.49 263.853H4.752C4.524 263.433 4.32 262.887 4.14 262.215C3.96 261.543 3.87 261.015 3.87 260.631C3.87 260.355 3.936 260.157 4.068 260.037C4.188 259.905 4.398 259.839 4.698 259.839H16.002C16.59 259.839 16.938 259.551 17.046 258.975L17.55 258.957ZM16.704 263.493C16.704 263.121 16.596 262.839 16.38 262.647H10.08C9.732 262.899 9.558 263.235 9.558 263.655C9.558 264.183 9.834 264.609 10.386 264.933C10.938 265.245 11.832 265.401 13.068 265.401C14.256 265.401 15.162 265.227 15.786 264.879C16.398 264.519 16.704 264.057 16.704 263.493ZM13.158 254.432L16.308 253.604L13.158 252.776L10.71 252.074C10.518 252.026 10.374 252.002 10.278 252.002C10.026 252.002 9.84 252.086 9.72 252.254C9.588 252.41 9.522 252.638 9.522 252.938C9.03 252.938 8.67 252.824 8.442 252.596V249.104C8.682 248.864 9.042 248.744 9.522 248.744C9.522 249.044 9.594 249.272 9.738 249.428C9.882 249.584 10.122 249.716 10.458 249.824L16.2 251.696C16.908 251.9 17.406 252.128 17.694 252.38C17.982 252.632 18.126 253.016 18.126 253.532V255.404L10.458 258.248C10.11 258.38 9.87 258.512 9.738 258.644C9.594 258.776 9.522 258.992 9.522 259.292C9.054 259.292 8.694 259.166 8.442 258.914V254.81C8.574 254.678 8.742 254.576 8.946 254.504C9.138 254.432 9.33 254.396 9.522 254.396C9.522 254.648 9.594 254.852 9.738 255.008C9.87 255.164 10.068 255.242 10.332 255.242C10.416 255.242 10.542 255.218 10.71 255.17L13.158 254.432ZM15.462 248.864C14.658 248.864 14.022 248.6 13.554 248.072C13.086 247.544 12.852 246.764 12.852 245.732C12.852 245.372 12.888 245.006 12.96 244.634C13.032 244.25 13.128 243.938 13.248 243.698H10.854C10.374 243.698 10.032 243.818 9.828 244.058C9.612 244.298 9.504 244.622 9.504 245.03C9.504 245.426 9.6 245.75 9.792 246.002C9.864 245.774 9.99 245.606 10.17 245.498C10.338 245.378 10.53 245.318 10.746 245.318C11.13 245.318 11.442 245.456 11.682 245.732C11.922 246.008 12.042 246.356 12.042 246.776C12.042 247.232 11.91 247.598 11.646 247.874C11.382 248.15 11.04 248.288 10.62 248.288C10.2 248.288 9.804 248.144 9.432 247.856C9.06 247.568 8.76 247.13 8.532 246.542C8.304 245.942 8.19 245.204 8.19 244.328C8.19 243.14 8.436 242.24 8.928 241.628C9.408 241.016 10.116 240.71 11.052 240.71H15.822C16.398 240.71 16.746 240.434 16.866 239.882H17.442C17.658 240.038 17.826 240.296 17.946 240.656C18.066 241.016 18.126 241.382 18.126 241.754C18.126 242.57 17.844 243.146 17.28 243.482C17.52 243.758 17.724 244.094 17.892 244.49C18.048 244.886 18.126 245.336 18.126 245.84C18.126 246.74 17.88 247.472 17.388 248.036C16.884 248.588 16.242 248.864 15.462 248.864ZM14.634 243.698C14.55 243.83 14.478 243.992 14.418 244.184C14.358 244.364 14.328 244.538 14.328 244.706C14.328 245.042 14.436 245.318 14.652 245.534C14.856 245.75 15.156 245.858 15.552 245.858C15.876 245.858 16.146 245.75 16.362 245.534C16.566 245.318 16.668 245.03 16.668 244.67C16.668 244.49 16.644 244.316 16.596 244.148C16.536 243.968 16.464 243.818 16.38 243.698H14.634ZM17.514 228.936C17.694 229.116 17.838 229.44 17.946 229.908C18.054 230.364 18.108 230.802 18.108 231.222C18.108 231.738 18.012 232.122 17.82 232.374C17.628 232.614 17.322 232.734 16.902 232.734H11.286C10.818 232.734 10.482 232.836 10.278 233.04C10.074 233.244 9.972 233.514 9.972 233.85C9.972 234.342 10.17 234.756 10.566 235.092H16.056C16.404 235.092 16.656 235.02 16.812 234.876C16.968 234.72 17.046 234.462 17.046 234.102C17.406 234.102 17.724 234.24 18 234.516V238.602C17.712 238.89 17.394 239.034 17.046 239.034C17.046 238.674 16.968 238.416 16.812 238.26C16.656 238.104 16.404 238.026 16.056 238.026H10.8C10.476 238.026 10.248 238.116 10.116 238.296C9.972 238.476 9.9 238.788 9.9 239.232H9.09C8.874 238.848 8.676 238.308 8.496 237.612C8.316 236.904 8.226 236.37 8.226 236.01C8.226 235.734 8.316 235.524 8.496 235.38C8.664 235.224 8.988 235.134 9.468 235.11C9.084 234.798 8.784 234.408 8.568 233.94C8.34 233.472 8.226 232.944 8.226 232.356C8.226 231.492 8.448 230.856 8.892 230.448C9.324 230.028 10.038 229.818 11.034 229.818H15.948C16.536 229.818 16.884 229.53 16.992 228.954L17.514 228.936ZM17.55 218.58C17.766 218.748 17.934 219 18.054 219.336C18.174 219.672 18.234 220.032 18.234 220.416C18.234 220.764 18.156 221.106 18 221.442C17.856 221.778 17.652 222.012 17.388 222.144C17.7 222.384 17.916 222.684 18.036 223.044C18.168 223.392 18.234 223.83 18.234 224.358C18.234 225.03 18.066 225.648 17.73 226.212C17.382 226.776 16.872 227.232 16.2 227.58C15.516 227.916 14.682 228.084 13.698 228.084C12.534 228.084 11.544 227.868 10.728 227.436C9.912 226.992 9.3 226.41 8.892 225.69C8.484 224.97 8.28 224.178 8.28 223.314C8.28 223.11 8.304 222.744 8.352 222.216L7.272 222.27H6.372C6.072 222.27 5.85 222.354 5.706 222.522C5.562 222.69 5.49 223.008 5.49 223.476H4.752C4.524 223.056 4.32 222.51 4.14 221.838C3.96 221.166 3.87 220.638 3.87 220.254C3.87 219.978 3.936 219.78 4.068 219.66C4.188 219.528 4.398 219.462 4.698 219.462H16.002C16.59 219.462 16.938 219.174 17.046 218.598L17.55 218.58ZM16.704 223.116C16.704 222.744 16.596 222.462 16.38 222.27H10.08C9.732 222.522 9.558 222.858 9.558 223.278C9.558 223.806 9.834 224.232 10.386 224.556C10.938 224.868 11.832 225.024 13.068 225.024C14.256 225.024 15.162 224.85 15.786 224.502C16.398 224.142 16.704 223.68 16.704 223.116ZM16.164 212.984C16.164 212.228 15.924 211.526 15.444 210.878C15.54 210.782 15.684 210.698 15.876 210.626C16.068 210.554 16.236 210.518 16.38 210.518C16.596 210.518 16.848 210.662 17.136 210.95C17.412 211.238 17.652 211.64 17.856 212.156C18.06 212.66 18.162 213.23 18.162 213.866C18.162 214.754 17.97 215.534 17.586 216.206C17.202 216.866 16.644 217.376 15.912 217.736C15.18 218.096 14.316 218.276 13.32 218.276C12.3 218.276 11.406 218.084 10.638 217.7C9.87 217.304 9.282 216.764 8.874 216.08C8.454 215.396 8.244 214.622 8.244 213.758C8.244 212.666 8.562 211.796 9.198 211.148C9.834 210.5 10.716 210.176 11.844 210.176C12.372 210.176 12.792 210.26 13.104 210.428C13.404 210.596 13.554 210.896 13.554 211.328V215.216C15.294 215.144 16.164 214.4 16.164 212.984ZM9.486 213.866C9.486 214.238 9.696 214.55 10.116 214.802C10.524 215.054 11.214 215.192 12.186 215.216V213.398C12.186 213.206 12.12 213.08 11.988 213.02C11.856 212.96 11.652 212.93 11.376 212.93C10.668 212.93 10.176 213.014 9.9 213.182C9.624 213.35 9.486 213.578 9.486 213.866ZM8.226 203.085C8.226 202.545 8.364 202.149 8.64 201.897C8.916 201.645 9.294 201.519 9.774 201.519C10.29 201.519 10.71 201.657 11.034 201.933C11.358 202.197 11.52 202.557 11.52 203.013C11.52 203.409 11.406 203.733 11.178 203.985C10.95 204.225 10.68 204.345 10.368 204.345C10.176 204.345 10.026 204.327 9.918 204.291C10.026 204.723 10.212 205.089 10.476 205.389H15.876C16.176 205.389 16.404 205.347 16.56 205.263C16.716 205.179 16.836 205.017 16.92 204.777C16.992 204.525 17.028 204.153 17.028 203.661C17.244 203.661 17.43 203.685 17.586 203.733C17.73 203.781 17.868 203.871 18 204.003V208.809C17.724 209.085 17.4 209.223 17.028 209.223C17.028 208.875 16.956 208.629 16.812 208.485C16.656 208.329 16.398 208.251 16.038 208.251H10.836C10.512 208.251 10.284 208.341 10.152 208.521C10.02 208.689 9.954 208.995 9.954 209.439H9.144C8.916 209.043 8.718 208.521 8.55 207.873C8.37 207.213 8.28 206.703 8.28 206.343C8.28 206.055 8.382 205.851 8.586 205.731C8.79 205.611 9.198 205.551 9.81 205.551C9.402 205.335 9.036 204.993 8.712 204.525C8.388 204.057 8.226 203.577 8.226 203.085ZM18.18 197.447C18.18 198.035 18.096 198.623 17.928 199.211C17.748 199.787 17.496 200.261 17.172 200.633C16.848 201.005 16.464 201.191 16.02 201.191C15.6 201.191 15.264 201.071 15.012 200.831C14.748 200.591 14.616 200.285 14.616 199.913C14.616 199.577 14.724 199.295 14.94 199.067C15.156 198.827 15.438 198.707 15.786 198.707C15.942 198.707 16.08 198.731 16.2 198.779C16.308 198.815 16.428 198.887 16.56 198.995C16.656 198.899 16.734 198.719 16.794 198.455C16.842 198.191 16.866 197.909 16.866 197.609C16.866 197.201 16.794 196.883 16.65 196.655C16.494 196.415 16.296 196.295 16.056 196.295C15.732 196.295 15.456 196.445 15.228 196.745C14.988 197.045 14.694 197.525 14.346 198.185C13.986 198.857 13.692 199.367 13.464 199.715C13.224 200.063 12.906 200.375 12.51 200.651C12.102 200.915 11.604 201.047 11.016 201.047C10.2 201.047 9.54 200.711 9.036 200.039C8.532 199.367 8.28 198.437 8.28 197.249C8.28 196.085 8.49 195.221 8.91 194.657C9.318 194.081 9.81 193.793 10.386 193.793C10.746 193.793 11.04 193.913 11.268 194.153C11.496 194.381 11.61 194.663 11.61 194.999C11.61 195.311 11.52 195.581 11.34 195.809C11.148 196.025 10.902 196.133 10.602 196.133C10.446 196.133 10.29 196.109 10.134 196.061C9.966 196.013 9.828 195.947 9.72 195.863C9.528 196.103 9.432 196.463 9.432 196.943C9.432 197.327 9.522 197.627 9.702 197.843C9.882 198.059 10.11 198.167 10.386 198.167C10.758 198.167 11.064 198.017 11.304 197.717C11.544 197.417 11.832 196.937 12.168 196.277C12.492 195.653 12.774 195.161 13.014 194.801C13.254 194.441 13.572 194.129 13.968 193.865C14.364 193.601 14.85 193.469 15.426 193.469C16.362 193.469 17.058 193.853 17.514 194.621C17.958 195.377 18.18 196.319 18.18 197.447ZM18.234 188.238C18.234 189.558 17.82 190.614 16.992 191.406C16.152 192.198 14.958 192.594 13.41 192.594C12.306 192.594 11.364 192.408 10.584 192.036C9.804 191.652 9.216 191.118 8.82 190.434C8.424 189.75 8.226 188.958 8.226 188.058C8.226 187.194 8.418 186.438 8.802 185.79C9.174 185.13 9.726 184.62 10.458 184.26C11.19 183.888 12.078 183.702 13.122 183.702C14.214 183.702 15.144 183.894 15.912 184.278C16.68 184.65 17.262 185.178 17.658 185.862C18.042 186.546 18.234 187.338 18.234 188.238ZM16.938 188.094C16.938 187.674 16.698 187.362 16.218 187.158C15.738 186.954 14.85 186.852 13.554 186.852C12.462 186.852 11.622 186.906 11.034 187.014C10.446 187.122 10.044 187.272 9.828 187.464C9.612 187.656 9.504 187.902 9.504 188.202C9.504 188.622 9.744 188.94 10.224 189.156C10.704 189.36 11.604 189.462 12.924 189.462C14.004 189.462 14.838 189.408 15.426 189.3C16.002 189.192 16.398 189.042 16.614 188.85C16.83 188.646 16.938 188.394 16.938 188.094ZM17.514 172.58C17.694 172.76 17.838 173.084 17.946 173.552C18.054 174.008 18.108 174.446 18.108 174.866C18.108 175.382 18.012 175.766 17.82 176.018C17.628 176.258 17.322 176.378 16.902 176.378H11.286C10.818 176.378 10.482 176.48 10.278 176.684C10.074 176.888 9.972 177.158 9.972 177.494C9.972 177.986 10.17 178.4 10.566 178.736H16.056C16.404 178.736 16.656 178.664 16.812 178.52C16.968 178.364 17.046 178.106 17.046 177.746C17.406 177.746 17.724 177.884 18 178.16V182.246C17.712 182.534 17.394 182.678 17.046 182.678C17.046 182.318 16.968 182.06 16.812 181.904C16.656 181.748 16.404 181.67 16.056 181.67H10.8C10.476 181.67 10.248 181.76 10.116 181.94C9.972 182.12 9.9 182.432 9.9 182.876H9.09C8.874 182.492 8.676 181.952 8.496 181.256C8.316 180.548 8.226 180.014 8.226 179.654C8.226 179.378 8.316 179.168 8.496 179.024C8.664 178.868 8.988 178.778 9.468 178.754C9.084 178.442 8.784 178.052 8.568 177.584C8.34 177.116 8.226 176.588 8.226 176C8.226 175.136 8.448 174.5 8.892 174.092C9.324 173.672 10.038 173.462 11.034 173.462H15.948C16.536 173.462 16.884 173.174 16.992 172.598L17.514 172.58ZM6.48 170.72C6.18 170.72 5.958 170.81 5.814 170.99C5.658 171.158 5.58 171.476 5.58 171.944H4.86C4.62 171.512 4.416 170.966 4.248 170.306C4.08 169.646 3.996 169.112 3.996 168.704C3.996 168.416 4.056 168.212 4.176 168.092C4.296 167.972 4.506 167.912 4.806 167.912H16.038C16.41 167.912 16.668 167.84 16.812 167.696C16.956 167.54 17.028 167.282 17.028 166.922C17.364 166.922 17.688 167.066 18 167.354V171.296C17.7 171.572 17.376 171.71 17.028 171.71C17.028 171.362 16.956 171.11 16.812 170.954C16.656 170.798 16.398 170.72 16.038 170.72H6.48ZM5.274 161.876C5.79 161.876 6.204 162.038 6.516 162.362C6.816 162.674 6.966 163.094 6.966 163.622C6.966 164.138 6.816 164.552 6.516 164.864C6.204 165.164 5.79 165.314 5.274 165.314C4.77 165.314 4.362 165.158 4.05 164.846C3.738 164.522 3.582 164.102 3.582 163.586C3.582 163.07 3.738 162.656 4.05 162.344C4.362 162.032 4.77 161.876 5.274 161.876ZM16.056 162.218C16.404 162.218 16.656 162.134 16.812 161.966C16.956 161.786 17.028 161.516 17.028 161.156C17.4 161.156 17.724 161.294 18 161.57V165.638C17.724 165.914 17.4 166.052 17.028 166.052C17.028 165.692 16.956 165.434 16.812 165.278C16.656 165.11 16.398 165.026 16.038 165.026H10.818C10.482 165.026 10.242 165.11 10.098 165.278C9.954 165.434 9.882 165.746 9.882 166.214H9.09C8.91 165.926 8.724 165.44 8.532 164.756C8.328 164.06 8.226 163.472 8.226 162.992C8.226 162.716 8.292 162.518 8.424 162.398C8.544 162.278 8.754 162.218 9.054 162.218H16.056ZM18.18 156.719C18.18 157.307 18.096 157.895 17.928 158.483C17.748 159.059 17.496 159.533 17.172 159.905C16.848 160.277 16.464 160.463 16.02 160.463C15.6 160.463 15.264 160.343 15.012 160.103C14.748 159.863 14.616 159.557 14.616 159.185C14.616 158.849 14.724 158.567 14.94 158.339C15.156 158.099 15.438 157.979 15.786 157.979C15.942 157.979 16.08 158.003 16.2 158.051C16.308 158.087 16.428 158.159 16.56 158.267C16.656 158.171 16.734 157.991 16.794 157.727C16.842 157.463 16.866 157.181 16.866 156.881C16.866 156.473 16.794 156.155 16.65 155.927C16.494 155.687 16.296 155.567 16.056 155.567C15.732 155.567 15.456 155.717 15.228 156.017C14.988 156.317 14.694 156.797 14.346 157.457C13.986 158.129 13.692 158.639 13.464 158.987C13.224 159.335 12.906 159.647 12.51 159.923C12.102 160.187 11.604 160.319 11.016 160.319C10.2 160.319 9.54 159.983 9.036 159.311C8.532 158.639 8.28 157.709 8.28 156.521C8.28 155.357 8.49 154.493 8.91 153.929C9.318 153.353 9.81 153.065 10.386 153.065C10.746 153.065 11.04 153.185 11.268 153.425C11.496 153.653 11.61 153.935 11.61 154.271C11.61 154.583 11.52 154.853 11.34 155.081C11.148 155.297 10.902 155.405 10.602 155.405C10.446 155.405 10.29 155.381 10.134 155.333C9.966 155.285 9.828 155.219 9.72 155.135C9.528 155.375 9.432 155.735 9.432 156.215C9.432 156.599 9.522 156.899 9.702 157.115C9.882 157.331 10.11 157.439 10.386 157.439C10.758 157.439 11.064 157.289 11.304 156.989C11.544 156.689 11.832 156.209 12.168 155.549C12.492 154.925 12.774 154.433 13.014 154.073C13.254 153.713 13.572 153.401 13.968 153.137C14.364 152.873 14.85 152.741 15.426 152.741C16.362 152.741 17.058 153.125 17.514 153.893C17.958 154.649 18.18 155.591 18.18 156.719ZM8.28 146.394C8.28 145.71 8.454 145.08 8.802 144.504C9.138 143.928 9.654 143.466 10.35 143.118C11.046 142.77 11.898 142.596 12.906 142.596C14.022 142.596 14.982 142.818 15.786 143.262C16.578 143.694 17.178 144.282 17.586 145.026C17.994 145.77 18.198 146.598 18.198 147.51C18.198 148.098 18.138 148.752 18.018 149.472C17.91 150.18 17.76 150.732 17.568 151.128H6.372C5.784 151.128 5.49 151.494 5.49 152.226H4.914C4.638 151.83 4.398 151.314 4.194 150.678C3.99 150.03 3.888 149.508 3.888 149.112C3.888 148.824 3.954 148.62 4.086 148.5C4.206 148.38 4.416 148.32 4.716 148.32H7.272L8.982 148.374C8.514 147.918 8.28 147.258 8.28 146.394ZM16.884 147.456C16.884 146.928 16.62 146.502 16.092 146.178C15.564 145.854 14.706 145.692 13.518 145.692C12.27 145.692 11.34 145.872 10.728 146.232C10.116 146.58 9.81 147.048 9.81 147.636C9.81 147.9 9.876 148.128 10.008 148.32H16.542C16.77 148.092 16.884 147.804 16.884 147.456ZM18.234 137.262C18.234 138.582 17.82 139.638 16.992 140.43C16.152 141.222 14.958 141.618 13.41 141.618C12.306 141.618 11.364 141.432 10.584 141.06C9.804 140.676 9.216 140.142 8.82 139.458C8.424 138.774 8.226 137.982 8.226 137.082C8.226 136.218 8.418 135.462 8.802 134.814C9.174 134.154 9.726 133.644 10.458 133.284C11.19 132.912 12.078 132.726 13.122 132.726C14.214 132.726 15.144 132.918 15.912 133.302C16.68 133.674 17.262 134.202 17.658 134.886C18.042 135.57 18.234 136.362 18.234 137.262ZM16.938 137.118C16.938 136.698 16.698 136.386 16.218 136.182C15.738 135.978 14.85 135.876 13.554 135.876C12.462 135.876 11.622 135.93 11.034 136.038C10.446 136.146 10.044 136.296 9.828 136.488C9.612 136.68 9.504 136.926 9.504 137.226C9.504 137.646 9.744 137.964 10.224 138.18C10.704 138.384 11.604 138.486 12.924 138.486C14.004 138.486 14.838 138.432 15.426 138.324C16.002 138.216 16.398 138.066 16.614 137.874C16.83 137.67 16.938 137.418 16.938 137.118ZM15.462 131.864C14.658 131.864 14.022 131.6 13.554 131.072C13.086 130.544 12.852 129.764 12.852 128.732C12.852 128.372 12.888 128.006 12.96 127.634C13.032 127.25 13.128 126.938 13.248 126.698H10.854C10.374 126.698 10.032 126.818 9.828 127.058C9.612 127.298 9.504 127.622 9.504 128.03C9.504 128.426 9.6 128.75 9.792 129.002C9.864 128.774 9.99 128.606 10.17 128.498C10.338 128.378 10.53 128.318 10.746 128.318C11.13 128.318 11.442 128.456 11.682 128.732C11.922 129.008 12.042 129.356 12.042 129.776C12.042 130.232 11.91 130.598 11.646 130.874C11.382 131.15 11.04 131.288 10.62 131.288C10.2 131.288 9.804 131.144 9.432 130.856C9.06 130.568 8.76 130.13 8.532 129.542C8.304 128.942 8.19 128.204 8.19 127.328C8.19 126.14 8.436 125.24 8.928 124.628C9.408 124.016 10.116 123.71 11.052 123.71H15.822C16.398 123.71 16.746 123.434 16.866 122.882H17.442C17.658 123.038 17.826 123.296 17.946 123.656C18.066 124.016 18.126 124.382 18.126 124.754C18.126 125.57 17.844 126.146 17.28 126.482C17.52 126.758 17.724 127.094 17.892 127.49C18.048 127.886 18.126 128.336 18.126 128.84C18.126 129.74 17.88 130.472 17.388 131.036C16.884 131.588 16.242 131.864 15.462 131.864ZM14.634 126.698C14.55 126.83 14.478 126.992 14.418 127.184C14.358 127.364 14.328 127.538 14.328 127.706C14.328 128.042 14.436 128.318 14.652 128.534C14.856 128.75 15.156 128.858 15.552 128.858C15.876 128.858 16.146 128.75 16.362 128.534C16.566 128.318 16.668 128.03 16.668 127.67C16.668 127.49 16.644 127.316 16.596 127.148C16.536 126.968 16.464 126.818 16.38 126.698H14.634ZM16.758 110.064C16.902 110.1 17.106 110.118 17.37 110.118C17.682 110.118 17.91 110.064 18.054 109.956C18.198 109.836 18.27 109.656 18.27 109.416C18.27 109.044 18.102 108.702 17.766 108.39C17.418 108.078 16.95 107.832 16.362 107.652C15.774 107.472 15.138 107.382 14.454 107.382C13.326 107.382 12.384 107.61 11.628 108.066C10.872 108.522 10.314 109.134 9.954 109.902C9.582 110.67 9.396 111.522 9.396 112.458C9.396 113.718 9.708 114.882 10.332 115.95C10.944 117.006 11.808 117.846 12.924 118.47C14.028 119.094 15.282 119.406 16.686 119.406C18.45 119.406 19.8 118.896 20.736 117.876C21.672 116.856 22.14 115.416 22.14 113.556C22.14 112.788 22.068 112.086 21.924 111.45C21.78 110.802 21.588 110.262 21.348 109.83L21.636 109.65C21.768 109.566 21.918 109.524 22.086 109.524C22.254 109.524 22.368 109.566 22.428 109.65C22.764 110.166 23.046 110.814 23.274 111.594C23.514 112.374 23.634 113.22 23.634 114.132C23.634 115.476 23.364 116.682 22.824 117.75C22.296 118.806 21.51 119.64 20.466 120.252C19.434 120.852 18.198 121.152 16.758 121.152C15.114 121.152 13.614 120.762 12.258 119.982C10.902 119.19 9.834 118.122 9.054 116.778C8.274 115.422 7.884 113.94 7.884 112.332C7.884 111.036 8.148 109.89 8.676 108.894C9.204 107.886 9.966 107.106 10.962 106.554C11.946 105.99 13.11 105.708 14.454 105.708C15.462 105.708 16.368 105.87 17.172 106.194C17.964 106.518 18.594 107.016 19.062 107.688C19.53 108.348 19.764 109.17 19.764 110.154C19.764 110.67 19.692 111.126 19.548 111.522C19.416 111.906 19.2 112.272 18.9 112.62C19.128 112.92 19.314 113.28 19.458 113.7C19.602 114.108 19.674 114.54 19.674 114.996C19.674 115.86 19.398 116.508 18.846 116.94C18.294 117.372 17.544 117.588 16.596 117.588C15.768 117.588 15.018 117.432 14.346 117.12C13.674 116.796 13.146 116.346 12.762 115.77C12.366 115.194 12.168 114.528 12.168 113.772C12.168 113.412 12.216 113.064 12.312 112.728C12.396 112.38 12.522 112.068 12.69 111.792C12.594 111.612 12.522 111.408 12.474 111.18C12.414 110.952 12.384 110.748 12.384 110.568V109.362L16.758 110.064ZM16.524 114.636C17.112 114.636 17.544 114.552 17.82 114.384C18.084 114.216 18.216 113.964 18.216 113.628C18.216 113.328 18.132 113.082 17.964 112.89L13.842 112.296C13.722 112.536 13.662 112.77 13.662 112.998C13.662 113.286 13.776 113.556 14.004 113.808C14.232 114.06 14.568 114.264 15.012 114.42C15.444 114.564 15.948 114.636 16.524 114.636ZM17.514 93.7638C17.91 94.1958 18.108 94.8558 18.108 95.7438C18.108 96.9558 17.73 97.5618 16.974 97.5618H11.178C10.794 97.5618 10.5 97.6698 10.296 97.8858C10.08 98.0898 9.972 98.3718 9.972 98.7318C9.972 98.9718 10.05 99.2238 10.206 99.4878C10.362 99.7398 10.56 99.9258 10.8 100.046H16.056C16.404 100.046 16.656 99.9738 16.812 99.8298C16.956 99.6738 17.028 99.4158 17.028 99.0558C17.4 99.0558 17.724 99.1938 18 99.4698V103.448C17.724 103.724 17.4 103.862 17.028 103.862C17.028 103.502 16.956 103.25 16.812 103.106C16.656 102.95 16.404 102.872 16.056 102.872H6.3C6 102.872 5.778 102.956 5.634 103.124C5.49 103.292 5.418 103.61 5.418 104.078H4.68C4.452 103.646 4.254 103.1 4.086 102.44C3.906 101.768 3.816 101.228 3.816 100.82C3.816 100.544 3.882 100.346 4.014 100.226C4.134 100.106 4.344 100.046 4.644 100.046H8.19L9.63 100.082C9.21 99.7578 8.868 99.3498 8.604 98.8578C8.34 98.3538 8.208 97.8018 8.208 97.2018C8.208 96.3618 8.436 95.7258 8.892 95.2938C9.336 94.8618 9.996 94.6458 10.872 94.6458H15.912C16.212 94.6458 16.452 94.5738 16.632 94.4298C16.812 94.2738 16.932 94.0578 16.992 93.7818L17.514 93.7638ZM18.234 88.6057C18.234 89.9257 17.82 90.9817 16.992 91.7737C16.152 92.5657 14.958 92.9617 13.41 92.9617C12.306 92.9617 11.364 92.7757 10.584 92.4037C9.804 92.0197 9.216 91.4857 8.82 90.8017C8.424 90.1177 8.226 89.3257 8.226 88.4257C8.226 87.5617 8.418 86.8057 8.802 86.1577C9.174 85.4977 9.726 84.9877 10.458 84.6277C11.19 84.2557 12.078 84.0697 13.122 84.0697C14.214 84.0697 15.144 84.2617 15.912 84.6457C16.68 85.0177 17.262 85.5457 17.658 86.2297C18.042 86.9137 18.234 87.7057 18.234 88.6057ZM16.938 88.4617C16.938 88.0417 16.698 87.7297 16.218 87.5257C15.738 87.3217 14.85 87.2197 13.554 87.2197C12.462 87.2197 11.622 87.2737 11.034 87.3817C10.446 87.4897 10.044 87.6397 9.828 87.8317C9.612 88.0237 9.504 88.2697 9.504 88.5697C9.504 88.9897 9.744 89.3077 10.224 89.5237C10.704 89.7277 11.604 89.8297 12.924 89.8297C14.004 89.8297 14.838 89.7757 15.426 89.6677C16.002 89.5597 16.398 89.4097 16.614 89.2177C16.83 89.0137 16.938 88.7617 16.938 88.4617ZM10.062 79.4455H15.138C15.498 79.4455 15.75 79.3735 15.894 79.2295C16.026 79.0855 16.092 78.8815 16.092 78.6175C16.092 78.3895 16.032 78.1495 15.912 77.8975C15.792 77.6455 15.642 77.4475 15.462 77.3035C15.558 77.1835 15.702 77.0995 15.894 77.0515C16.086 76.9915 16.26 76.9615 16.416 76.9615C16.692 76.9615 16.962 77.0575 17.226 77.2495C17.49 77.4415 17.706 77.7295 17.874 78.1135C18.042 78.4975 18.126 78.9595 18.126 79.4995C18.126 80.3395 17.886 81.0175 17.406 81.5335C16.926 82.0375 16.128 82.2895 15.012 82.2895H10.062V83.4235H8.964C8.916 83.1115 8.718 82.8115 8.37 82.5235C8.01 82.2235 7.566 81.9715 7.038 81.7675C6.498 81.5515 5.964 81.4135 5.436 81.3535C5.4 81.1375 5.382 80.9395 5.382 80.7595C5.382 80.3275 5.508 80.0095 5.76 79.8055C6 79.5895 6.27 79.4815 6.57 79.4815H8.46V77.3935C8.82 77.3935 9.132 77.4115 9.396 77.4475C9.648 77.4835 9.87 77.5615 10.062 77.6815V79.4455ZM16.056 61.7344C16.572 61.7344 16.884 61.4404 16.992 60.8524H17.514C17.91 61.3084 18.108 62.0464 18.108 63.0664C18.108 63.5704 18.042 63.9664 17.91 64.2544C17.766 64.5424 17.52 64.6864 17.172 64.6864H11.178C10.794 64.6864 10.5 64.7944 10.296 65.0104C10.08 65.2144 9.972 65.4904 9.972 65.8384C9.972 66.2704 10.116 66.6424 10.404 66.9544C10.464 66.9424 10.554 66.9364 10.674 66.9364H16.056C16.404 66.9364 16.656 66.8644 16.812 66.7204C16.956 66.5764 17.028 66.3484 17.028 66.0364C17.388 66.0364 17.712 66.1804 18 66.4684V70.3024C17.7 70.5784 17.376 70.7164 17.028 70.7164C17.028 70.4164 16.956 70.2004 16.812 70.0684C16.656 69.9364 16.404 69.8704 16.056 69.8704H11.178C10.806 69.8704 10.512 69.9784 10.296 70.1944C10.08 70.4104 9.972 70.6804 9.972 71.0044C9.972 71.2444 10.032 71.4844 10.152 71.7244C10.26 71.9644 10.41 72.1624 10.602 72.3184H16.056C16.404 72.3184 16.656 72.2584 16.812 72.1384C16.956 72.0064 17.028 71.7904 17.028 71.4904C17.4 71.4904 17.724 71.6344 18 71.9224L18 75.8284C17.712 76.1164 17.388 76.2604 17.028 76.2604C17.028 75.9004 16.956 75.6424 16.812 75.4864C16.656 75.3304 16.404 75.2524 16.056 75.2524H10.782C10.458 75.2524 10.23 75.3424 10.098 75.5224C9.954 75.7024 9.882 76.0144 9.882 76.4584H9.09C8.862 76.0744 8.658 75.5344 8.478 74.8384C8.298 74.1304 8.208 73.5964 8.208 73.2364C8.208 72.9724 8.292 72.7684 8.46 72.6244C8.616 72.4684 8.916 72.3664 9.36 72.3184C9 72.0064 8.718 71.6104 8.514 71.1304C8.31 70.6504 8.208 70.1164 8.208 69.5284C8.208 68.3284 8.61 67.5484 9.414 67.1884C9.03 66.8764 8.736 66.4744 8.532 65.9824C8.316 65.4784 8.208 64.9204 8.208 64.3084C8.208 63.4564 8.418 62.8144 8.838 62.3824C9.258 61.9504 9.87 61.7344 10.674 61.7344H16.056ZM15.462 60.1099C14.658 60.1099 14.022 59.8459 13.554 59.3179C13.086 58.7899 12.852 58.0099 12.852 56.9779C12.852 56.6179 12.888 56.2519 12.96 55.8799C13.032 55.4959 13.128 55.1839 13.248 54.9439H10.854C10.374 54.9439 10.032 55.0639 9.828 55.3039C9.612 55.5439 9.504 55.8679 9.504 56.2759C9.504 56.6719 9.6 56.9959 9.792 57.2479C9.864 57.0199 9.99 56.8519 10.17 56.7439C10.338 56.6239 10.53 56.5639 10.746 56.5639C11.13 56.5639 11.442 56.7019 11.682 56.9779C11.922 57.2539 12.042 57.6019 12.042 58.0219C12.042 58.4779 11.91 58.8439 11.646 59.1199C11.382 59.3959 11.04 59.5339 10.62 59.5339C10.2 59.5339 9.804 59.3899 9.432 59.1019C9.06 58.8139 8.76 58.3759 8.532 57.7879C8.304 57.1879 8.19 56.4499 8.19 55.5739C8.19 54.3859 8.436 53.4859 8.928 52.8739C9.408 52.2619 10.116 51.9559 11.052 51.9559H15.822C16.398 51.9559 16.746 51.6799 16.866 51.1279H17.442C17.658 51.2839 17.826 51.5419 17.946 51.9019C18.066 52.2619 18.126 52.6279 18.126 52.9999C18.126 53.8159 17.844 54.3919 17.28 54.7279C17.52 55.0039 17.724 55.3399 17.892 55.7359C18.048 56.1319 18.126 56.5819 18.126 57.0859C18.126 57.9859 17.88 58.7179 17.388 59.2819C16.884 59.8339 16.242 60.1099 15.462 60.1099ZM14.634 54.9439C14.55 55.0759 14.478 55.2379 14.418 55.4299C14.358 55.6099 14.328 55.7839 14.328 55.9519C14.328 56.2879 14.436 56.5639 14.652 56.7799C14.856 56.9959 15.156 57.1039 15.552 57.1039C15.876 57.1039 16.146 56.9959 16.362 56.7799C16.566 56.5639 16.668 56.2759 16.668 55.9159C16.668 55.7359 16.644 55.5619 16.596 55.3939C16.536 55.2139 16.464 55.0639 16.38 54.9439H14.634ZM5.274 46.2299C5.79 46.2299 6.204 46.3919 6.516 46.7159C6.816 47.0279 6.966 47.4479 6.966 47.9759C6.966 48.4919 6.816 48.9059 6.516 49.2179C6.204 49.5179 5.79 49.6679 5.274 49.6679C4.77 49.6679 4.362 49.5119 4.05 49.1999C3.738 48.8759 3.582 48.4559 3.582 47.9399C3.582 47.4239 3.738 47.0099 4.05 46.6979C4.362 46.3859 4.77 46.2299 5.274 46.2299ZM16.056 46.5719C16.404 46.5719 16.656 46.4879 16.812 46.3199C16.956 46.1399 17.028 45.8699 17.028 45.5099C17.4 45.5099 17.724 45.6479 18 45.9239V49.9919C17.724 50.2679 17.4 50.4059 17.028 50.4059C17.028 50.0459 16.956 49.7879 16.812 49.6319C16.656 49.4639 16.398 49.3799 16.038 49.3799H10.818C10.482 49.3799 10.242 49.4639 10.098 49.6319C9.954 49.7879 9.882 50.0999 9.882 50.5679H9.09C8.91 50.2799 8.724 49.7939 8.532 49.1099C8.328 48.4139 8.226 47.8259 8.226 47.3459C8.226 47.0699 8.292 46.8719 8.424 46.7519C8.544 46.6319 8.754 46.5719 9.054 46.5719H16.056ZM6.48 43.7185C6.18 43.7185 5.958 43.8085 5.814 43.9885C5.658 44.1565 5.58 44.4745 5.58 44.9425H4.86C4.62 44.5105 4.416 43.9645 4.248 43.3045C4.08 42.6445 3.996 42.1105 3.996 41.7025C3.996 41.4145 4.056 41.2105 4.176 41.0905C4.296 40.9705 4.506 40.9105 4.806 40.9105H16.038C16.41 40.9105 16.668 40.8385 16.812 40.6945C16.956 40.5385 17.028 40.2805 17.028 39.9205C17.364 39.9205 17.688 40.0645 18 40.3525V44.2945C17.7 44.5705 17.376 44.7085 17.028 44.7085C17.028 44.3605 16.956 44.1085 16.812 43.9525C16.656 43.7965 16.398 43.7185 16.038 43.7185H6.48ZM16.452 35.3244C16.98 35.3244 17.412 35.4924 17.748 35.8284C18.072 36.1644 18.234 36.6024 18.234 37.1424C18.234 37.6944 18.072 38.1384 17.748 38.4744C17.412 38.8104 16.98 38.9784 16.452 38.9784C15.912 38.9784 15.48 38.8104 15.156 38.4744C14.832 38.1384 14.67 37.6944 14.67 37.1424C14.67 36.6024 14.832 36.1644 15.156 35.8284C15.48 35.4924 15.912 35.3244 16.452 35.3244ZM15.714 27.5798C15.822 27.4838 15.966 27.4058 16.146 27.3458C16.326 27.2738 16.482 27.2378 16.614 27.2378C16.878 27.2378 17.136 27.3758 17.388 27.6518C17.64 27.9278 17.85 28.2998 18.018 28.7678C18.186 29.2238 18.27 29.7218 18.27 30.2618C18.27 31.1378 18.072 31.9118 17.676 32.5838C17.28 33.2558 16.71 33.7778 15.966 34.1498C15.222 34.5218 14.34 34.7078 13.32 34.7078C12.276 34.7078 11.37 34.5098 10.602 34.1138C9.834 33.7058 9.246 33.1478 8.838 32.4398C8.43 31.7198 8.226 30.9158 8.226 30.0278C8.226 29.1398 8.442 28.4498 8.874 27.9578C9.294 27.4538 9.834 27.2018 10.494 27.2018C11.058 27.2018 11.502 27.3458 11.826 27.6338C12.138 27.9218 12.294 28.2938 12.294 28.7498C12.294 29.1218 12.156 29.4338 11.88 29.6858C11.604 29.9378 11.268 30.0638 10.872 30.0638C10.608 30.0638 10.386 30.0158 10.206 29.9198C10.026 29.8238 9.864 29.6918 9.72 29.5238C9.612 29.7158 9.558 29.8898 9.558 30.0458C9.558 30.4538 9.804 30.8138 10.296 31.1258C10.776 31.4378 11.574 31.5938 12.69 31.5938C13.962 31.5938 14.88 31.4078 15.444 31.0358C15.996 30.6638 16.272 30.1178 16.272 29.3978C16.272 29.0618 16.224 28.7318 16.128 28.4078C16.032 28.0718 15.894 27.7958 15.714 27.5798ZM18.234 22.0373C18.234 23.3573 17.82 24.4133 16.992 25.2053C16.152 25.9973 14.958 26.3933 13.41 26.3933C12.306 26.3933 11.364 26.2073 10.584 25.8353C9.804 25.4513 9.216 24.9173 8.82 24.2333C8.424 23.5493 8.226 22.7573 8.226 21.8573C8.226 20.9933 8.418 20.2373 8.802 19.5893C9.174 18.9293 9.726 18.4193 10.458 18.0593C11.19 17.6873 12.078 17.5013 13.122 17.5013C14.214 17.5013 15.144 17.6933 15.912 18.0773C16.68 18.4493 17.262 18.9773 17.658 19.6613C18.042 20.3453 18.234 21.1373 18.234 22.0373ZM16.938 21.8933C16.938 21.4733 16.698 21.1613 16.218 20.9573C15.738 20.7533 14.85 20.6513 13.554 20.6513C12.462 20.6513 11.622 20.7053 11.034 20.8133C10.446 20.9213 10.044 21.0713 9.828 21.2633C9.612 21.4553 9.504 21.7013 9.504 22.0013C9.504 22.4213 9.744 22.7393 10.224 22.9553C10.704 23.1593 11.604 23.2613 12.924 23.2613C14.004 23.2613 14.838 23.2073 15.426 23.0993C16.002 22.9913 16.398 22.8413 16.614 22.6493C16.83 22.4453 16.938 22.1933 16.938 21.8933ZM16.056 1.95116C16.572 1.95116 16.884 1.65716 16.992 1.06916H17.514C17.91 1.52516 18.108 2.26316 18.108 3.28316C18.108 3.78716 18.042 4.18316 17.91 4.47116C17.766 4.75916 17.52 4.90316 17.172 4.90316H11.178C10.794 4.90316 10.5 5.01116 10.296 5.22716C10.08 5.43116 9.972 5.70716 9.972 6.05516C9.972 6.48716 10.116 6.85916 10.404 7.17116C10.464 7.15916 10.554 7.15316 10.674 7.15316H16.056C16.404 7.15316 16.656 7.08116 16.812 6.93716C16.956 6.79316 17.028 6.56516 17.028 6.25316C17.388 6.25316 17.712 6.39716 18 6.68516V10.5192C17.7 10.7952 17.376 10.9332 17.028 10.9332C17.028 10.6332 16.956 10.4172 16.812 10.2852C16.656 10.1532 16.404 10.0872 16.056 10.0872H11.178C10.806 10.0872 10.512 10.1952 10.296 10.4112C10.08 10.6272 9.972 10.8972 9.972 11.2212C9.972 11.4612 10.032 11.7012 10.152 11.9412C10.26 12.1812 10.41 12.3792 10.602 12.5352H16.056C16.404 12.5352 16.656 12.4752 16.812 12.3552C16.956 12.2232 17.028 12.0072 17.028 11.7072C17.4 11.7072 17.724 11.8512 18 12.1392V16.0452C17.712 16.3332 17.388 16.4772 17.028 16.4772C17.028 16.1172 16.956 15.8592 16.812 15.7032C16.656 15.5472 16.404 15.4692 16.056 15.4692H10.782C10.458 15.4692 10.23 15.5592 10.098 15.7392C9.954 15.9192 9.882 16.2312 9.882 16.6752H9.09C8.862 16.2912 8.658 15.7512 8.478 15.0552C8.298 14.3472 8.208 13.8132 8.208 13.4532C8.208 13.1892 8.292 12.9852 8.46 12.8412C8.616 12.6852 8.916 12.5832 9.36 12.5352C9 12.2232 8.718 11.8272 8.514 11.3472C8.31 10.8672 8.208 10.3332 8.208 9.74516C8.208 8.54516 8.61 7.76516 9.414 7.40516C9.03 7.09316 8.736 6.69116 8.532 6.19916C8.316 5.69516 8.208 5.13716 8.208 4.52516C8.208 3.67316 8.418 3.03116 8.838 2.59916C9.258 2.16716 9.87 1.95116 10.674 1.95116H16.056Z" fill="#43AA8B"/>
<line x1="12.5" y1="592" x2="12.5" y2="284" stroke="#43AA8B"/>
</svg>
