<svg width="60" height="60" viewBox="0 0 60 60" fill="none" xmlns="http://www.w3.org/2000/svg">
<path fillRule="evenodd" clipRule="evenodd" d="M49.0646 10.6882H11.1149V49.5913H49.0646V10.6882ZM11.1149 8.68815H9.11486V10.6882V49.5913V51.5913H11.1149H49.0646H51.0646V49.5913V10.6882V8.68815H49.0646H11.1149ZM57.1716 29.6629L30.3371 2.82843L2.82843 30.3371L29.6629 57.1716L57.1716 29.6629ZM31.7513 1.41421L30.3371 0L28.9229 1.41421L1.41421 28.9229L0 30.3371L1.41421 31.7513L28.2487 58.5858L29.6629 60L31.0771 58.5858L58.5858 31.0771L60 29.6629L58.5858 28.2487L31.7513 1.41421Z" fill="#198867"/>
<rect x="28.5704" y="25.2998" width="3.13317" height="11.7494" fill="#A43DA6"/>
<rect x="30.0322" y="36.9443" width="2.86021" height="14.301" transform="rotate(-90 30.0322 36.9443)" fill="#A43DA6"/>
<path d="M35.5142 24.3117L37.421 21.9282L47.1934 36.9443L42.9031 36.9443L35.5142 24.3117Z" fill="#A43DA6"/>
<rect x="18.5914" y="25.5035" width="3.33691" height="19.068" transform="rotate(-90 18.5914 25.5035)" fill="#A43DA6"/>
<rect x="15.2545" y="22.1666" width="3.13317" height="14.6215" fill="#3DB691"/>
<rect x="18.3876" y="31.0439" width="3.13317" height="7.57184" transform="rotate(-90 18.3876 31.0439)" fill="#3DB691"/>
<rect x="18.3876" y="36.7881" width="3.13317" height="7.57184" transform="rotate(-90 18.3876 36.7881)" fill="#3DB691"/>
</svg>
