<svg width="25" height="24" viewBox="0 0 25 24" fill="none" xmlns="http://www.w3.org/2000/svg">
<path fillRule="evenodd" clipRule="evenodd" d="M12.5 1.08854C6.19271 1.08854 1.08646 6.16875 1.08646 12.425C1.08646 17.0187 3.83958 20.9719 7.80208 22.75C8.21667 22.9365 8.62187 22.8625 8.93854 22.625C9.11367 22.4886 9.25484 22.3135 9.35098 22.1135C9.44712 21.9134 9.49563 21.6938 9.49271 21.4719V20.8781L8.07917 20.6865C8.0687 20.685 8.05828 20.6833 8.04792 20.6812C7.26875 20.5292 6.74271 20.2552 6.35729 19.8604C6.03333 19.5281 5.83542 19.1302 5.66771 18.7927L5.60938 18.675C5.45437 18.3517 5.28511 18.0354 5.10208 17.7271C4.96146 17.5042 4.85208 17.3896 4.74375 17.3177C4.46875 17.1354 4.20417 16.826 4.20417 16.4396C4.20323 16.3284 4.22704 16.2183 4.27388 16.1174C4.32073 16.0165 4.38942 15.9273 4.475 15.8562C4.63652 15.7284 4.83781 15.6613 5.04375 15.6667C5.275 15.6667 5.49271 15.7375 5.67396 15.8187C5.85938 15.9021 6.04375 16.0125 6.21562 16.1271C6.63437 16.4062 7.04687 16.7365 7.39583 17.1437C7.75937 17.5667 8.01667 17.8354 8.40417 17.8906C8.72292 17.9365 9.04792 17.9375 9.30104 17.926C9.33622 17.7256 9.39424 17.5299 9.47396 17.3427C9.1648 17.2706 8.85983 17.1815 8.56042 17.076C7.87917 16.8344 7.11979 16.4583 6.60937 15.8885C6.04896 15.2615 5.70208 14.7021 5.50833 14.0479C5.31979 13.4104 5.28854 12.7198 5.28854 11.8698C5.28854 10.5677 5.85208 9.47083 6.275 8.88854C6.11251 8.37875 5.99573 7.8555 5.92604 7.325C5.87988 6.99045 5.88024 6.65112 5.92708 6.31667C5.97917 6.01146 6.10937 5.63646 6.45208 5.41042C6.78229 5.19062 7.16979 5.2 7.47187 5.25625C7.78542 5.31562 8.11146 5.44583 8.41146 5.59479C8.9 5.83646 9.38542 6.15937 9.74896 6.43333C10.376 6.24896 11.4854 6.01146 12.4885 5.98958H12.5115C13.5156 6.01146 14.575 6.24896 15.1865 6.43229C15.551 6.15938 16.0354 5.83542 16.5229 5.59479C16.8229 5.44583 17.1479 5.31562 17.4625 5.25625C17.7646 5.2 18.1521 5.19062 18.4833 5.40937C18.825 5.63646 18.9562 6.01146 19.0073 6.31667C19.0604 6.63438 19.0479 6.98958 19.0073 7.325C18.9379 7.85546 18.8215 8.37871 18.6594 8.88854C19.0823 9.47187 19.6458 10.5688 19.6458 11.8698C19.6458 12.7198 19.6146 13.4104 19.4271 14.0469C19.2323 14.7031 18.8854 15.2615 18.325 15.8885C17.8146 16.4583 17.0552 16.8344 16.374 17.076C16.0123 17.2031 15.6428 17.3065 15.2677 17.3854C15.3958 17.7729 15.4417 18.0865 15.4417 18.2667V21.4854C15.4417 21.975 15.6698 22.3927 15.9937 22.6365C16.3083 22.875 16.7125 22.949 17.1271 22.7677C21.1271 21.0052 23.9125 17.0417 23.9125 12.424C23.9125 6.16875 18.8083 1.08854 12.5 1.08854ZM9.87083 18.9687C9.6 19.0073 9.86979 18.9687 9.86979 18.9687H9.86667L9.85833 18.9708L9.82812 18.975C9.6734 18.9932 9.5181 19.006 9.3625 19.0135C9.06875 19.0271 8.66562 19.0281 8.25208 18.9687C7.42812 18.8521 6.92708 18.2687 6.60313 17.8896L6.57187 17.8542C6.46596 17.7313 6.35217 17.6154 6.23125 17.5073C6.33854 17.7052 6.45 17.926 6.56979 18.1635L6.58021 18.1844L6.63333 18.2927C6.81562 18.6552 6.93542 18.8969 7.13437 19.099C7.32812 19.2969 7.63021 19.4885 8.24062 19.6094L10.1094 19.8625C10.2399 19.8802 10.3596 19.9446 10.4462 20.0438C10.5328 20.1431 10.5804 20.2704 10.5802 20.4021V21.4719C10.5802 22.3052 10.1896 23.0479 9.59062 23.4979C9.27616 23.7382 8.90206 23.8881 8.50868 23.9314C8.1153 23.9747 7.71755 23.9098 7.35833 23.7437C3.02292 21.799 0 17.4688 0 12.425C0 5.55833 5.60104 0 12.5 0C19.399 0 25 5.55833 25 12.425C25 17.4948 21.9385 21.8365 17.5656 23.7646C17.2061 23.9275 16.8091 23.9897 16.417 23.9443C16.0249 23.899 15.6524 23.7479 15.3396 23.5073C15.0302 23.2691 14.7803 22.9625 14.6093 22.6116C14.4383 22.2606 14.351 21.8748 14.3542 21.4844V18.2656C14.3542 18.1927 14.3031 17.7719 14.0187 17.2062C13.9795 17.1278 13.9597 17.0411 13.9611 16.9534C13.9625 16.8657 13.985 16.7796 14.0267 16.7025C14.0684 16.6253 14.128 16.5593 14.2006 16.5101C14.2732 16.4609 14.3566 16.4299 14.4437 16.4198C14.801 16.3802 15.4031 16.2646 16.0104 16.049C16.6292 15.8302 17.1844 15.5302 17.5146 15.1615C18.0052 14.6135 18.25 14.1927 18.3844 13.7375C18.524 13.2656 18.5594 12.7167 18.5594 11.8698C18.5594 10.6812 17.9344 9.68229 17.6469 9.36042C17.5816 9.28767 17.5371 9.19871 17.5181 9.10286C17.499 9.00701 17.5061 8.9078 17.5385 8.81563C17.6844 8.40521 17.8615 7.76667 17.9292 7.19687C17.9625 6.91042 17.9646 6.67083 17.9354 6.49792C17.9289 6.43469 17.9098 6.37342 17.8792 6.31771C17.8075 6.3053 17.7339 6.3085 17.6635 6.32708C17.4865 6.36042 17.2604 6.44375 17.0042 6.57083C16.4937 6.82292 15.9625 7.19583 15.6333 7.4625C15.5607 7.52139 15.4741 7.5605 15.382 7.57602C15.2898 7.59153 15.1952 7.58293 15.1073 7.55104C14.2639 7.27515 13.3866 7.11638 12.5 7.07917C11.451 7.10417 10.2406 7.40208 9.82708 7.55104C9.73921 7.58293 9.64459 7.59153 9.55241 7.57602C9.46023 7.5605 9.37363 7.52139 9.30104 7.4625C8.87535 7.11979 8.41607 6.82104 7.93021 6.57083C7.72158 6.46127 7.49957 6.37933 7.26979 6.32708C7.19976 6.30865 7.12658 6.30545 7.05521 6.31771C7.02459 6.37341 7.00546 6.43469 6.99896 6.49792C6.96979 6.67083 6.97187 6.91042 7.00521 7.19687C7.07292 7.76667 7.25104 8.40521 7.39583 8.81563C7.46146 9.00313 7.42083 9.21146 7.2875 9.36042C7 9.68229 6.375 10.6812 6.375 11.8698C6.375 12.7156 6.41042 13.2656 6.55 13.7375C6.68542 14.1927 6.92917 14.6125 7.41875 15.1615C7.75 15.5302 8.30417 15.8302 8.92396 16.049C9.43101 16.2284 9.95591 16.3527 10.4896 16.4198C10.5994 16.4316 10.703 16.4765 10.7866 16.5486C10.8703 16.6207 10.93 16.7166 10.9578 16.8235C10.9856 16.9303 10.9802 17.0431 10.9424 17.1469C10.9045 17.2506 10.8359 17.3403 10.7458 17.4042C10.574 17.5271 10.4604 17.7479 10.3969 18.0031C10.3641 18.1345 10.3445 18.2689 10.3385 18.4042V18.424C10.3399 18.556 10.2932 18.6841 10.2071 18.7843C10.1211 18.8845 10.0016 18.9501 9.87083 18.9687Z" fill="#43AA8B"/>
</svg>
