<svg width="25" height="25" viewBox="0 0 25 25" fill="none" xmlns="http://www.w3.org/2000/svg">
<path d="M12.5 6.77083C11.3669 6.77083 10.2592 7.10684 9.31705 7.73637C8.37489 8.3659 7.64057 9.26068 7.20694 10.3075C6.77331 11.3544 6.65986 12.5064 6.88092 13.6177C7.10198 14.7291 7.64763 15.7499 8.44887 16.5511C9.2501 17.3524 10.2709 17.898 11.3823 18.1191C12.4936 18.3401 13.6456 18.2267 14.6925 17.7931C15.7393 17.3594 16.6341 16.6251 17.2636 15.683C17.8932 14.7408 18.2292 13.6331 18.2292 12.5C18.2274 10.9811 17.6233 9.52482 16.5492 8.45077C15.4752 7.37672 14.0189 6.77256 12.5 6.77083ZM12.5 17.1875C11.5729 17.1875 10.6666 16.9126 9.89577 16.3975C9.12491 15.8824 8.5241 15.1504 8.16931 14.2938C7.81453 13.4373 7.7217 12.4948 7.90257 11.5855C8.08344 10.6762 8.52988 9.841 9.18544 9.18544C9.841 8.52988 10.6762 8.08344 11.5855 7.90257C12.4948 7.7217 13.4373 7.81453 14.2938 8.16931C15.1504 8.5241 15.8824 9.12491 16.3975 9.89577C16.9126 10.6666 17.1875 11.5729 17.1875 12.5C17.1861 13.7428 16.6918 14.9343 15.813 15.813C14.9343 16.6918 13.7428 17.1861 12.5 17.1875ZM18.2292 0H6.77083C4.97572 0.0020333 3.25471 0.71604 1.98538 1.98538C0.71604 3.25471 0.0020333 4.97572 0 6.77083V18.2292C0.0020333 20.0243 0.71604 21.7453 1.98538 23.0146C3.25471 24.284 4.97572 24.998 6.77083 25H18.2292C20.0243 24.998 21.7453 24.284 23.0146 23.0146C24.284 21.7453 24.998 20.0243 25 18.2292V6.77083C24.998 4.97572 24.284 3.25471 23.0146 1.98538C21.7453 0.71604 20.0243 0.0020333 18.2292 0ZM23.9583 18.2292C23.9566 19.7481 23.3525 21.2043 22.2784 22.2784C21.2043 23.3525 19.7481 23.9566 18.2292 23.9583H6.77083C5.25189 23.9566 3.79566 23.3525 2.7216 22.2784C1.64755 21.2043 1.04339 19.7481 1.04167 18.2292V6.77083C1.04339 5.25189 1.64755 3.79566 2.7216 2.7216C3.79566 1.64755 5.25189 1.04339 6.77083 1.04167H18.2292C19.7481 1.04339 21.2043 1.64755 22.2784 2.7216C23.3525 3.79566 23.9566 5.25189 23.9583 6.77083V18.2292ZM20.3125 5.72917C20.3125 5.93519 20.2514 6.13658 20.1369 6.30789C20.0225 6.47919 19.8598 6.6127 19.6695 6.69154C19.4791 6.77038 19.2697 6.79101 19.0676 6.75082C18.8656 6.71063 18.6799 6.61142 18.5343 6.46574C18.3886 6.32006 18.2894 6.13445 18.2492 5.93239C18.209 5.73032 18.2296 5.52088 18.3085 5.33054C18.3873 5.1402 18.5208 4.97751 18.6921 4.86305C18.8634 4.74859 19.0648 4.6875 19.2708 4.6875C19.547 4.68784 19.8117 4.7977 20.007 4.99298C20.2023 5.18825 20.3122 5.45301 20.3125 5.72917Z" fill="#43AA8B"/>
</svg>
