<svg width="27" height="26" viewBox="0 0 27 26" fill="none" xmlns="http://www.w3.org/2000/svg">
<path d="M18.5 8.5C20.4891 8.5 22.3968 9.29018 23.8033 10.6967C25.2098 12.1032 26 14.0109 26 16V24.75H21V16C21 15.337 20.7366 14.7011 20.2678 14.2322C19.7989 13.7634 19.163 13.5 18.5 13.5C17.837 13.5 17.2011 13.7634 16.7322 14.2322C16.2634 14.7011 16 15.337 16 16V24.75H11V16C11 14.0109 11.7902 12.1032 13.1967 10.6967C14.6032 9.29018 16.5109 8.5 18.5 8.5Z" 
stroke="#43AA8B" strokeLinecap="round" strokeLinejoin="round"/>
<path d="M1 9.75H6V24.75H1V9.75Z" stroke="#43AA8B" strokeLinecap="round" strokeLinejoin="round"/>
<path d="M3.5 6C4.88071 6 6 4.88071 6 3.5C6 2.11929 4.88071 1 3.5 1C2.11929 1 1 2.11929 1 3.5C1 4.88071 2.11929 6 3.5 6Z" stroke="#43AA8B"
 strokeLinecap="round" strokeLinejoin="round"/>
</svg>
