<svg width="25" height="26" viewBox="0 0 25 26" fill="none" xmlns="http://www.w3.org/2000/svg">
<path d="M24.63 7.91846L12.9633 0.140125C12.8264 0.0487588 12.6655 0 12.5008 0C12.3362 0 12.1753 0.0487588 12.0383 0.140125L0.371667 7.91846C0.25752 7.99459 0.163893 8.09768 0.0990684 8.21861C0.0342434 8.33954 0.000217489 8.47458 0 8.61179V16.3901C0 16.6685 0.14 16.9285 0.371667 17.0835L12.0383 24.8618C12.1751 24.9528 12.3357 25.0014 12.5 25.0014C12.6643 25.0014 12.8249 24.9528 12.9617 24.8618L24.6283 17.0835C24.7425 17.0073 24.8361 16.9042 24.9009 16.7833C24.9658 16.6624 24.9998 16.5273 25 16.3901V8.61179C24.9998 8.47458 24.9658 8.33954 24.9009 8.21861C24.8361 8.09768 24.7425 7.99459 24.6283 7.91846H24.63ZM12.5017 15.3868L8.17 12.5001L12.5017 9.61346L16.8333 12.5001L12.5017 15.3868ZM13.335 8.16513V2.39012L22.6667 8.61013L18.335 11.4968L13.335 8.16346V8.16513ZM11.6683 8.16513L6.66833 11.4985L2.33667 8.61179L11.6683 2.39179V8.16679V8.16513ZM5.16667 12.5001L1.66833 14.8318V10.1685L5.16667 12.5001ZM6.66833 13.5018L11.6683 16.8351V22.6101L2.33667 16.3901L6.66833 13.5035V13.5018ZM13.335 16.8351L18.335 13.5018L22.6667 16.3885L13.335 22.6085V16.8335V16.8351ZM19.8367 12.5001L23.335 10.1685V14.8318L19.8367 12.5001Z" fill="#43AA8B"/>
</svg>
